<?xml version="1.0" encoding="UTF-8" standalone="no"?>
<!DOCTYPE svg PUBLIC "-//W3C//DTD SVG 1.1//EN"
 "http://www.w3.org/Graphics/SVG/1.1/DTD/svg11.dtd">
<svg width="706px" height="689px" 
 viewBox="0.00 0.00 706 689" xmlns="http://www.w3.org/2000/svg" xmlns:xlink="http://www.w3.org/1999/xlink">
<g>
<rect fill="#F9F9F9" height="689" style="stroke:none;stroke-width:1.0;" width="706" x="0" y="0"> </rect>
<rect fill="#7FFFD4" height="640.2578" rx="3.5" ry="3.5" style="stroke:#181818;stroke-width:0.5;" width="559" x="134.5" y="43.2969"> </rect>
<text fill="#000000" font-family="sans-serif" font-size="13" font-weight="bold" lengthAdjust="spacing" textLength="64" x="382" y="55.3638">SAS Viya</text>
<rect fill="#ADD8E6" height="620.125" rx="3.5" ry="3.5" style="stroke:#181818;stroke-width:0.5;" width="261.5" x="134.5" y="63.4297"> </rect>
<text fill="#000000" font-family="sans-serif" font-size="13" font-weight="bold" lengthAdjust="spacing" textLength="148" x="191.25" y="75.4966">SAS Visual Analytics</text>
<text fill="#000000" font-family="sans-serif" font-size="14" font-weight="bold" lengthAdjust="spacing" textLength="234" x="253.75" y="27.9951">Interaktion og kommunikation</text>
<line style="stroke:#393939;stroke-width:0.5;stroke-dasharray:5.0,5.0;" x1="43" x2="43" y1="158.8594" y2="601.2578"> </line>
<line style="stroke:#393939;stroke-width:0.5;stroke-dasharray:5.0,5.0;" x1="169" x2="169" y1="158.8594" y2="601.2578"> </line>
<line style="stroke:#393939;stroke-width:0.5;stroke-dasharray:5.0,5.0;" x1="315" x2="315" y1="158.8594" y2="601.2578"> </line>
<line style="stroke:#393939;stroke-width:0.5;stroke-dasharray:5.0,5.0;" x1="463.5" x2="463.5" y1="158.8594" y2="601.2578"> </line>
<line style="stroke:#393939;stroke-width:0.5;stroke-dasharray:5.0,5.0;" x1="596.5" x2="596.5" y1="158.8594" y2="601.2578"> </line>
<line style="stroke:#393939;stroke-width:0.5;stroke-dasharray:5.0,5.0;" x1="658.5" x2="658.5" y1="158.8594" y2="601.2578"> </line>
<text fill="#191919" font-family="sans-serif" font-size="14" lengthAdjust="spacing" textLength="32" x="24" y="155.5576">User</text>
<ellipse cx="43" cy="91.0625" fill="#191919" rx="8" ry="8" style="stroke:#191919;stroke-width:0.5;"> </ellipse>
<path d="M43,99.0625 L43,126.0625 M30,107.0625 L56,107.0625 M43,126.0625 L30,141.0625 M43,126.0625 L56,141.0625 " fill="none" style="stroke:#191919;stroke-width:0.5;"> </path>
<rect fill="#E55756" height="30.2969" rx="3.5" ry="3.5" style="stroke:#191919;stroke-width:1.5;" width="61" x="138.5" y="127.5625"> </rect>
<text fill="#F9F9F9" font-family="sans-serif" font-size="14" lengthAdjust="spacing" textLength="47" x="145.5" y="147.5576">Report</text>
<rect fill="#E55756" height="30.2969" rx="3.5" ry="3.5" style="stroke:#191919;stroke-width:1.5;" width="154" x="238" y="127.5625"> </rect>
<text fill="#F9F9F9" font-family="sans-serif" font-size="14" lengthAdjust="spacing" textLength="140" x="245" y="147.5576">Data Driven Content</text>
<rect fill="#E55756" height="30.2969" rx="3.5" ry="3.5" style="stroke:#191919;stroke-width:1.5;" width="103" x="412" y="127.5625"> </rect>
<text fill="#F9F9F9" font-family="sans-serif" font-size="14" lengthAdjust="spacing" textLength="89" x="419" y="147.5576">JobExecution</text>
<rect fill="#E55756" height="30.2969" rx="3.5" ry="3.5" style="stroke:#191919;stroke-width:1.5;" width="42" x="575.5" y="127.5625"> </rect>
<text fill="#F9F9F9" font-family="sans-serif" font-size="14" lengthAdjust="spacing" textLength="28" x="582.5" y="147.5576">CAS</text>
<rect fill="#E55756" height="30.2969" rx="3.5" ry="3.5" style="stroke:#191919;stroke-width:1.5;" width="62" x="627.5" y="127.5625"> </rect>
<text fill="#F9F9F9" font-family="sans-serif" font-size="14" lengthAdjust="spacing" textLength="48" x="634.5" y="147.5576">MSSQL</text>
<text fill="#191919" font-family="sans-serif" font-size="14" lengthAdjust="spacing" textLength="32" x="24" y="674.2529">User</text>
<ellipse cx="43" cy="609.7578" fill="#191919" rx="8" ry="8" style="stroke:#191919;stroke-width:0.5;"> </ellipse>
<path d="M43,617.7578 L43,644.7578 M30,625.7578 L56,625.7578 M43,644.7578 L30,659.7578 M43,644.7578 L56,659.7578 " fill="none" style="stroke:#191919;stroke-width:0.5;"> </path>
<rect fill="#E55756" height="30.2969" rx="3.5" ry="3.5" style="stroke:#191919;stroke-width:1.5;" width="61" x="138.5" y="601.2578"> </rect>
<text fill="#F9F9F9" font-family="sans-serif" font-size="14" lengthAdjust="spacing" textLength="47" x="145.5" y="621.2529">Report</text>
<rect fill="#E55756" height="30.2969" rx="3.5" ry="3.5" style="stroke:#191919;stroke-width:1.5;" width="154" x="238" y="601.2578"> </rect>
<text fill="#F9F9F9" font-family="sans-serif" font-size="14" lengthAdjust="spacing" textLength="140" x="245" y="621.2529">Data Driven Content</text>
<rect fill="#E55756" height="30.2969" rx="3.5" ry="3.5" style="stroke:#191919;stroke-width:1.5;" width="103" x="412" y="601.2578"> </rect>
<text fill="#F9F9F9" font-family="sans-serif" font-size="14" lengthAdjust="spacing" textLength="89" x="419" y="621.2529">JobExecution</text>
<rect fill="#E55756" height="30.2969" rx="3.5" ry="3.5" style="stroke:#191919;stroke-width:1.5;" width="42" x="575.5" y="601.2578"> </rect>
<text fill="#F9F9F9" font-family="sans-serif" font-size="14" lengthAdjust="spacing" textLength="28" x="582.5" y="621.2529">CAS</text>
<rect fill="#E55756" height="30.2969" rx="3.5" ry="3.5" style="stroke:#191919;stroke-width:1.5;" width="62" x="627.5" y="601.2578"> </rect>
<text fill="#F9F9F9" font-family="sans-serif" font-size="14" lengthAdjust="spacing" textLength="48" x="634.5" y="621.2529">MSSQL</text>
<path d="M11.5,170.8594 L319,170.8594 L319,177.9922 L309,187.9922 L8,187.9922 L8,174.3594 A3.5,3.5 0 0 1 11.5,170.8594 " fill="#EEEEEE" style="stroke:#393939;stroke-width:1.5;"> </path>
<rect fill="none" height="406.3984" rx="3.5" ry="3.5" style="stroke:#393939;stroke-width:1.0;" width="666.5" x="8" y="170.8594"> </rect>
<text fill="#191919" font-family="sans-serif" font-size="13" font-weight="bold" lengthAdjust="spacing" textLength="266" x="23" y="183.9263">Feedback from SAS Visual Analytics</text>
<line style="stroke:#393939;stroke-width:1.0;stroke-dasharray:2.0,2.0;" x1="8" x2="674.5" y1="208.9922" y2="208.9922"> </line>
<text fill="#393939" font-family="sans-serif" font-size="11" font-weight="bold" lengthAdjust="spacing" textLength="200" x="13" y="221.2026">[Initialize Data Driven Content]</text>
<rect fill="#EEEEEE" height="3" rx="3.5" ry="3.5" style="stroke:#EEEEEE;stroke-width:1.0;" width="694.5" x="5" y="249.3633"> </rect>
<line style="stroke:#191919;stroke-width:0.5;" x1="5" x2="699.5" y1="249.3633" y2="249.3633"> </line>
<line style="stroke:#191919;stroke-width:0.5;" x1="5" x2="699.5" y1="252.3633" y2="252.3633"> </line>
<rect fill="#EEEEEE" height="23.1328" rx="3.5" ry="3.5" style="stroke:#191919;stroke-width:1.0;" width="235" x="234.75" y="238.7969"> </rect>
<text fill="#191919" font-family="sans-serif" font-size="13" font-weight="bold" lengthAdjust="spacing" textLength="216" x="240.75" y="254.8638">Initialize Data Driven Content</text>
<polygon fill="#191919" points="157,289.0625,167,293.0625,157,297.0625,161,293.0625" style="stroke:#191919;stroke-width:1.0;"> </polygon>
<line style="stroke:#191919;stroke-width:1.0;" x1="43" x2="163" y1="293.0625" y2="293.0625"> </line>
<text fill="#000000" font-family="sans-serif" font-size="13" font-weight="bold" lengthAdjust="spacing" textLength="23" x="50" y="287.9966">1.1</text>
<text fill="#000000" font-family="sans-serif" font-size="13" lengthAdjust="spacing" textLength="75" x="77" y="287.9966">Click on row</text>
<polygon fill="#191919" points="303,318.1953,313,322.1953,303,326.1953,307,322.1953" style="stroke:#191919;stroke-width:1.0;"> </polygon>
<line style="stroke:#191919;stroke-width:1.0;" x1="169" x2="309" y1="322.1953" y2="322.1953"> </line>
<text fill="#000000" font-family="sans-serif" font-size="13" font-weight="bold" lengthAdjust="spacing" textLength="23" x="176" y="317.1294">1.2</text>
<text fill="#000000" font-family="sans-serif" font-size="13" lengthAdjust="spacing" textLength="95" x="203" y="317.1294">messageEvent</text>
<polygon fill="#191919" points="54,347.3281,44,351.3281,54,355.3281,50,351.3281" style="stroke:#191919;stroke-width:1.0;"> </polygon>
<line style="stroke:#191919;stroke-width:1.0;" x1="48" x2="314" y1="351.3281" y2="351.3281"> </line>
<text fill="#000000" font-family="sans-serif" font-size="13" font-weight="bold" lengthAdjust="spacing" textLength="23" x="60" y="346.2622">1.3</text>
<text fill="#000000" font-family="sans-serif" font-size="13" lengthAdjust="spacing" textLength="89" x="87" y="346.2622">GUI Checkbox</text>
<rect fill="#EEEEEE" height="3" rx="3.5" ry="3.5" style="stroke:#EEEEEE;stroke-width:1.0;" width="694.5" x="5" y="379.8945"> </rect>
<line style="stroke:#191919;stroke-width:0.5;" x1="5" x2="699.5" y1="379.8945" y2="379.8945"> </line>
<line style="stroke:#191919;stroke-width:0.5;" x1="5" x2="699.5" y1="382.8945" y2="382.8945"> </line>
<rect fill="#EEEEEE" height="23.1328" rx="3.5" ry="3.5" style="stroke:#191919;stroke-width:1.0;" width="124" x="290.25" y="369.3281"> </rect>
<text fill="#191919" font-family="sans-serif" font-size="13" font-weight="bold" lengthAdjust="spacing" textLength="105" x="296.25" y="385.395">Update status</text>
<polygon fill="#191919" points="303,419.5938,313,423.5938,303,427.5938,307,423.5938" style="stroke:#191919;stroke-width:1.0;"> </polygon>
<line style="stroke:#191919;stroke-width:1.0;" x1="43" x2="309" y1="423.5938" y2="423.5938"> </line>
<text fill="#000000" font-family="sans-serif" font-size="13" font-weight="bold" lengthAdjust="spacing" textLength="23" x="50" y="418.5278">2.1</text>
<text fill="#000000" font-family="sans-serif" font-size="13" lengthAdjust="spacing" textLength="115" x="77" y="418.5278">Change Checkbox</text>
<polygon fill="#191919" points="451.5,448.7266,461.5,452.7266,451.5,456.7266,455.5,452.7266" style="stroke:#191919;stroke-width:1.0;"> </polygon>
<line style="stroke:#191919;stroke-width:1.0;" x1="315" x2="457.5" y1="452.7266" y2="452.7266"> </line>
<text fill="#000000" font-family="sans-serif" font-size="13" font-weight="bold" lengthAdjust="spacing" textLength="23" x="322" y="447.6606">2.2</text>
<text fill="#000000" font-family="sans-serif" font-size="13" lengthAdjust="spacing" textLength="79" x="349" y="447.6606">Submit data</text>
<polygon fill="#191919" points="646.5,477.8594,656.5,481.8594,646.5,485.8594,650.5,481.8594" style="stroke:#191919;stroke-width:1.0;"> </polygon>
<line style="stroke:#191919;stroke-width:1.0;" x1="463.5" x2="652.5" y1="481.8594" y2="481.8594"> </line>
<text fill="#000000" font-family="sans-serif" font-size="13" font-weight="bold" lengthAdjust="spacing" textLength="23" x="470.5" y="476.7935">2.3</text>
<text fill="#000000" font-family="sans-serif" font-size="13" lengthAdjust="spacing" textLength="78" x="497.5" y="476.7935">Persist Data</text>
<polygon fill="#191919" points="584.5,506.9922,594.5,510.9922,584.5,514.9922,588.5,510.9922" style="stroke:#191919;stroke-width:1.0;"> </polygon>
<line style="stroke:#191919;stroke-width:1.0;" x1="463.5" x2="590.5" y1="510.9922" y2="510.9922"> </line>
<text fill="#000000" font-family="sans-serif" font-size="13" font-weight="bold" lengthAdjust="spacing" textLength="23" x="470.5" y="505.9263">2.4</text>
<text fill="#000000" font-family="sans-serif" font-size="13" lengthAdjust="spacing" textLength="82" x="497.5" y="505.9263">Update Data</text>
<polygon fill="#191919" points="326,536.125,316,540.125,326,544.125,322,540.125" style="stroke:#191919;stroke-width:1.0;"> </polygon>
<line style="stroke:#191919;stroke-width:1.0;" x1="320" x2="462.5" y1="540.125" y2="540.125"> </line>
<text fill="#000000" font-family="sans-serif" font-size="13" font-weight="bold" lengthAdjust="spacing" textLength="23" x="332" y="535.0591">2.5</text>
<text fill="#000000" font-family="sans-serif" font-size="13" lengthAdjust="spacing" textLength="39" x="359" y="535.0591">Result</text>
<polygon fill="#191919" points="54,565.2578,44,569.2578,54,573.2578,50,569.2578" style="stroke:#191919;stroke-width:1.0;"> </polygon>
<line style="stroke:#191919;stroke-width:1.0;" x1="48" x2="314" y1="569.2578" y2="569.2578"> </line>
<text fill="#000000" font-family="sans-serif" font-size="13" font-weight="bold" lengthAdjust="spacing" textLength="23" x="60" y="564.1919">2.6</text>
<text fill="#000000" font-family="sans-serif" font-size="13" lengthAdjust="spacing" textLength="69" x="87" y="564.1919">GUI Status</text>
</g>
</svg>
